<svg xmlns="http://www.w3.org/2000/svg" width="258.675" height="21.8" viewBox="0 0 258.675 21.8" fill="#fff">
  <g id="Group_6" data-name="Group 6" transform="translate(-120 -1670.2)">
    <g id="Group_1" data-name="Group 1" transform="translate(120 1670.449)">
      <path id="Path_1" data-name="Path 1" d="M242.551,50.75H221A21.551,21.551,0,0,0,242.551,72.3H264.1A21.551,21.551,0,0,0,242.551,50.75Z" transform="translate(-221 -50.75)"/>
      <path id="Path_2" data-name="Path 2" d="M309.051,50.75H330.6A21.551,21.551,0,0,1,309.051,72.3H287.5A21.551,21.551,0,0,1,309.051,50.75Z" transform="translate(-244.399 -50.75)"/>
    </g>
    <path id="Path_3" data-name="Path 3" d="M6.775-12.9H3.55v-3.65H2.525v3.65H.3v.9H2.525v9.425Q2.525.05,5.475.05q.15,0,1.3-.05V-.875Q6.55-.85,5.6-.85a2.3,2.3,0,0,1-1.562-.438A1.742,1.742,0,0,1,3.55-2.65V-12H6.775Zm7.75-.3a4.716,4.716,0,0,0-2.7.775,4.682,4.682,0,0,0-1.725,2.2V-17.8H9.075V0H10.1V-7.175A5.338,5.338,0,0,1,11.375-11a4.024,4.024,0,0,1,2.975-1.275,3.648,3.648,0,0,1,2.775,1.025A4.155,4.155,0,0,1,18.1-8.275V0h1.025V-8.375a4.958,4.958,0,0,0-1.2-3.575A4.492,4.492,0,0,0,14.525-13.2ZM33.2-6.5a7.7,7.7,0,0,0-1.475-4.825,5.075,5.075,0,0,0-4.2-1.875,5.076,5.076,0,0,0-4.175,1.85,7.4,7.4,0,0,0-1.525,4.9,7.379,7.379,0,0,0,1.55,4.9A5.221,5.221,0,0,0,27.6.3,5.221,5.221,0,0,0,31.15-.938a5.534,5.534,0,0,0,1.8-3.312H31.9a4.461,4.461,0,0,1-1.45,2.637,4.193,4.193,0,0,1-2.825.963A4.285,4.285,0,0,1,24.2-2.1a6.261,6.261,0,0,1-1.325-4.025H33.2Zm-5.675-5.75a4.1,4.1,0,0,1,3.263,1.4,6.079,6.079,0,0,1,1.337,3.775H22.9a6.042,6.042,0,0,1,1.337-3.8A4.16,4.16,0,0,1,27.525-12.25ZM46.925.3a5.194,5.194,0,0,0,3.6-1.325,5.278,5.278,0,0,0,1.7-3.375h-1.05A4.4,4.4,0,0,1,49.75-1.675a4.093,4.093,0,0,1-2.825,1.05,4.144,4.144,0,0,1-3.388-1.55A6.584,6.584,0,0,1,42.275-6.45a6.584,6.584,0,0,1,1.262-4.275,4.144,4.144,0,0,1,3.388-1.55,4.133,4.133,0,0,1,2.763.963A4.269,4.269,0,0,1,51.125-8.75H52.2a5.094,5.094,0,0,0-1.725-3.225,5.254,5.254,0,0,0-3.55-1.225,5.123,5.123,0,0,0-4.15,1.825A7.281,7.281,0,0,0,41.2-6.45a7.281,7.281,0,0,0,1.575,4.925A5.123,5.123,0,0,0,46.925.3Zm8.8-15.15v-2.275H54.65v2.275ZM55.7,0V-12.9H54.675V0Zm8.875-13.05a4.879,4.879,0,0,0-2.925.863,4.775,4.775,0,0,0-1.725,2.313V-12.9H58.95V0h1.025V-7.15a5.1,5.1,0,0,1,1.225-3.6,4.465,4.465,0,0,1,3.45-1.325,6.145,6.145,0,0,1,.7.025v-.975A7.641,7.641,0,0,0,64.575-13.05ZM71.7.3a5.194,5.194,0,0,0,3.6-1.325A5.277,5.277,0,0,0,77-4.4H75.95a4.4,4.4,0,0,1-1.425,2.725A4.093,4.093,0,0,1,71.7-.625a4.144,4.144,0,0,1-3.388-1.55A6.584,6.584,0,0,1,67.05-6.45a6.584,6.584,0,0,1,1.262-4.275,4.144,4.144,0,0,1,3.388-1.55,4.133,4.133,0,0,1,2.762.963A4.269,4.269,0,0,1,75.9-8.75h1.075a5.094,5.094,0,0,0-1.725-3.225A5.254,5.254,0,0,0,71.7-13.2a5.123,5.123,0,0,0-4.15,1.825A7.281,7.281,0,0,0,65.975-6.45,7.281,7.281,0,0,0,67.55-1.525,5.123,5.123,0,0,0,71.7.3ZM80.475,0V-17.8H79.45V0Zm13.6.3a6.176,6.176,0,0,0,3.638-.95A3.139,3.139,0,0,0,99.05-3.375a2.9,2.9,0,0,0-.962-2.312A6.385,6.385,0,0,0,95.025-6.9l-1.4-.225a6.219,6.219,0,0,1-2.588-.925A2.065,2.065,0,0,1,90.25-9.8a2.118,2.118,0,0,1,.938-1.85A4.535,4.535,0,0,1,93.8-12.3a4.654,4.654,0,0,1,2.863.725,2.942,2.942,0,0,1,1.063,2.2h1.05Q98.525-13.2,93.8-13.2a5.484,5.484,0,0,0-3.362.912,2.971,2.971,0,0,0-1.213,2.512A2.992,2.992,0,0,0,90.2-7.413,6.153,6.153,0,0,0,93.275-6.2l1.425.225a5.766,5.766,0,0,1,2.55.938A2.088,2.088,0,0,1,98-3.325Q98-.6,94.075-.6t-4.2-3.35h-1.05A4.229,4.229,0,0,0,90.288-.825,5.722,5.722,0,0,0,94.075.3ZM106.4-12.9h-3.225v-3.65H102.15v3.65H99.925v.9h2.225v9.425Q102.15.05,105.1.05q.15,0,1.3-.05V-.875q-.225.025-1.175.025a2.3,2.3,0,0,1-1.562-.438,1.742,1.742,0,0,1-.487-1.362V-12H106.4Zm11.25,7.175A5.506,5.506,0,0,1,116.4-1.9a4,4,0,0,1-3,1.275,3.648,3.648,0,0,1-2.775-1.025,4.155,4.155,0,0,1-.975-2.975V-12.9h-1.025v8.375a4.958,4.958,0,0,0,1.2,3.575,4.492,4.492,0,0,0,3.4,1.25,4.609,4.609,0,0,0,2.7-.8,4.993,4.993,0,0,0,1.75-2.225V0h1V-12.9H117.65Zm14.3-4.35a5.24,5.24,0,0,0-1.925-2.312,5.2,5.2,0,0,0-2.9-.812,5.165,5.165,0,0,0-4.175,1.85,7.362,7.362,0,0,0-1.575,4.9,7.2,7.2,0,0,0,1.575,4.875A5.136,5.136,0,0,0,127.125.3,4.906,4.906,0,0,0,132-2.95V0h.975V-17.8H131.95ZM123.75-2.2a6.33,6.33,0,0,1-1.3-4.2,6.576,6.576,0,0,1,1.3-4.275,4.2,4.2,0,0,1,3.475-1.6,4.275,4.275,0,0,1,3.5,1.6A6.645,6.645,0,0,1,132-6.45a6.645,6.645,0,0,1-1.275,4.225,4.275,4.275,0,0,1-3.5,1.6A4.232,4.232,0,0,1,123.75-2.2Zm13.525-12.65v-2.275H136.2v2.275ZM137.25,0V-12.9h-1.025V0Zm12.8-1.575a7.236,7.236,0,0,0,1.625-4.875,7.236,7.236,0,0,0-1.625-4.875A5.309,5.309,0,0,0,145.8-13.2a5.328,5.328,0,0,0-4.225,1.875A7.236,7.236,0,0,0,139.95-6.45a7.236,7.236,0,0,0,1.625,4.875A5.328,5.328,0,0,0,145.8.3,5.309,5.309,0,0,0,150.05-1.575Zm-4.25.95a4.249,4.249,0,0,1-3.475-1.6,6.494,6.494,0,0,1-1.3-4.225,6.494,6.494,0,0,1,1.3-4.225,4.249,4.249,0,0,1,3.475-1.6,4.275,4.275,0,0,1,3.5,1.6,6.494,6.494,0,0,1,1.3,4.225,6.494,6.494,0,0,1-1.3,4.225A4.275,4.275,0,0,1,145.8-.625Z" transform="translate(227 1688)"/>
  </g>
</svg>
